<svg width="22" height="24" viewBox="0 0 22 24" fill="none" xmlns="http://www.w3.org/2000/svg">
<path d="M21.5106 16.175C21.4474 15.8558 21.0797 15.6372 20.7735 15.7765C20.2762 15.2727 19.3853 15.5286 18.7373 15.574C18.7649 15.5562 19.0937 15.0783 19.0937 15.0783C19.1342 14.5194 19.0176 13.9832 18.875 13.4487C19.395 13.5377 20.7557 13.6139 20.8367 13.6106C21.6191 13.5669 21.2077 11.4967 20.4852 11.4529C20.4852 11.4529 17.7459 11.8547 17.5532 11.8271C18.3858 10.9329 19.7238 10.5555 20.3831 9.52199C21.428 8.60512 19.2832 8.01872 18.6498 7.70121C19.1374 7.49386 19.5489 7.37075 20.0478 7.24602H20.0527L20.0559 7.2444L20.1612 7.21686L20.1223 7.14558C20.9615 6.32591 19.2865 4.82101 18.4603 5.41228C17.7492 5.59857 17.0883 5.92741 16.4532 6.29189C17.0785 5.5111 17.7621 4.62014 18.0942 3.68222L18.057 3.66602C17.9905 3.05531 17.6666 0.76314 16.7432 1.59415C17.0397 0.601149 15.8668 -0.654281 15.112 0.39866C14.8495 0.94133 14.5337 1.4759 14.2955 2.03639C14.2923 1.66705 14.7345 0.597909 14.3927 0.303086C13.8258 -0.0176565 12.6999 0.562271 12.6886 1.23291C12.8328 1.91328 12.823 3.45867 12.768 3.49269C12.6756 3.551 12.5833 3.61418 12.4829 3.67736C12.4926 3.55586 12.3533 2.44947 12.1751 2.1676C11.6324 1.30905 10.2944 1.53584 9.76302 2.73457C9.49898 4.0791 10.1356 5.77028 10.1081 7.2525C9.55081 6.06996 9.46172 4.46139 8.46871 3.57854C8.46871 3.57854 5.42004 3.71462 6.07611 5.09964C6.35797 5.54511 7.59396 6.96253 7.75919 7.212C7.75919 7.212 6.88444 6.43606 6.48918 6.36641C5.95461 6.27407 5.3925 6.49438 5.40384 7.10185C5.50914 7.2687 5.59175 7.49872 5.91412 7.5457C5.82664 7.98146 6.40819 8.31192 6.6285 8.65534C5.82502 8.20501 4.4643 5.71844 3.59278 6.67419C2.77311 7.2282 2.09437 7.95554 1.57276 8.79465C2.28714 9.31626 3.24936 9.6937 4.10144 9.86541C4.18891 10.1068 4.4805 10.2882 4.66678 10.4729C3.74668 10.0339 2.07655 10.5895 3.17323 11.6911C3.008 11.5777 1.72179 10.5247 1.35083 10.0549C0.837318 10.528 0.0338431 12.6128 0.958812 12.8687C1.03819 13.1295 1.34597 13.2364 1.576 13.3434C-0.717795 13.528 1.1208 15.8072 2.46047 15.6938C2.73585 15.6712 2.99018 15.5464 3.18295 15.2808C3.22183 15.3326 3.27042 15.3763 3.3255 15.4071C3.21049 15.5027 3.08251 15.7262 3.11815 15.9125C2.9999 15.8672 2.87031 15.8558 2.74071 15.885H2.73423C2.2191 15.953 1.71855 16.1766 1.2423 16.3564C1.2261 17.7771 2.29524 19.384 3.69646 19.7031C2.8784 20.4062 4.74454 21.4526 5.30179 21.8349L5.28073 21.8317C6.63498 22.653 7.98436 24.4462 9.73872 23.8776L9.59455 23.6346C10.4806 23.6476 11.3068 24.0915 12.2042 23.9829L12.1329 23.7885C13.0936 23.7399 14.7313 24.0202 15.1039 22.8749L15.1589 22.9948C15.6951 23.1373 16.936 22.7162 16.8096 22.0374C17.6892 22.1362 17.4446 21.1529 16.9457 20.8128C18.1153 22.0633 19.1212 21.0088 19.6801 19.7809C19.6801 19.7809 19.4436 19.4925 19.4436 19.4844C18.4036 19.2528 17.3442 18.8883 16.2686 19.0908L16.6736 18.7798C16.6736 18.7798 16.8955 18.6194 16.9959 18.5708C16.9959 18.5708 20.1742 18.6696 20.6715 18.7668C20.989 17.9358 21.5705 17.1015 21.5074 16.1814L21.5106 16.175Z" fill="#101010"/>
</svg>
