<svg xmlns="http://www.w3.org/2000/svg" width="83" height="82" viewBox="0 0 83 82" fill="none">
    <path d="M32.9198 81.3929C32.7994 81.4877 32.6421 81.522 32.4931 81.486C14.7892 77.2082 1.48535 59.9687 1.48535 41C1.48535 18.7536 19.7391 0.5 41.9857 0.5C64.2322 0.5 82.486 18.7536 82.4854 41C82.4854 59.9687 69.1822 77.2082 51.4775 81.486C51.3286 81.522 51.1713 81.4877 51.0508 81.3929C50.9304 81.2981 50.8601 81.1533 50.8601 81V64.4808V64.4798C50.8642 62.4523 50.4809 61.2158 49.9584 60.2483C49.6928 59.7564 49.3851 59.3226 49.0504 58.8738C48.9847 58.7858 48.9177 58.6967 48.8497 58.6063C48.5759 58.2427 48.2866 57.8585 48.0105 57.4376C47.9571 57.3561 47.9286 57.2608 47.9286 57.1633V57.1609C47.9286 56.9132 48.1099 56.7029 48.3548 56.6664C58.5825 55.1409 62.5909 49.745 64.1792 45.5384C66.1423 40.3323 65.3523 36.1261 64.1055 33.1255C63.48 31.6201 62.7376 30.4144 62.1589 29.5313C62.0543 29.3717 61.9524 29.2187 61.8568 29.0752C61.6942 28.8312 61.5499 28.6145 61.4412 28.4386C61.3541 28.2977 61.2741 28.1581 61.2196 28.0316C61.1923 27.9681 61.1644 27.8922 61.1484 27.8101C61.1331 27.7323 61.1203 27.6091 61.1642 27.474L61.1652 27.471C62.008 24.9301 61.9189 22.5736 61.6057 20.7871C61.4492 19.8944 61.2371 19.1462 61.0586 18.591C60.9827 18.3551 60.9131 18.1545 60.8555 17.9897C60.4839 18.0727 60.1748 18.0962 59.8751 18.1152C59.8518 18.1167 59.8286 18.1181 59.8055 18.1196C59.4243 18.1434 59.056 18.1663 58.5295 18.297C57.393 18.5791 55.4901 19.3725 51.436 21.8281L51.433 21.8299C51.2937 21.9129 51.1795 21.9619 51.103 21.9913C51.1018 21.9917 51.1006 21.9922 51.0994 21.9926C51.0137 22.0397 50.9134 22.0622 50.8089 22.0517L50.4452 22.0151C50.4178 22.0123 50.3908 22.0073 50.3643 22.0001C47.5788 21.2441 44.7797 20.8433 41.9851 20.8067C39.2107 20.8433 36.3935 21.2443 33.7213 21.9702C33.6907 21.9785 33.6594 21.9839 33.6278 21.9863C33.5436 21.9926 33.4946 22.0036 33.4608 22.0125C33.4443 22.0168 33.4373 22.0188 33.428 22.0215C33.4197 22.0239 33.4095 22.0269 33.3889 22.0325C33.3597 22.0405 33.3104 22.0534 33.2519 22.0602C32.9777 22.0922 32.7501 21.9564 32.5507 21.8376L32.5419 21.8323L32.5405 21.8314L31.4168 21.1564L31.4147 21.1551C28.1794 19.1895 26.5252 18.5378 25.4519 18.2896C24.9469 18.1728 24.561 18.1427 24.1629 18.1116C24.1398 18.1098 24.1167 18.108 24.0935 18.1062C23.7922 18.0825 23.4814 18.0554 23.127 17.9832C23.0679 18.1483 22.996 18.3501 22.9175 18.5887C22.7368 19.1377 22.5219 19.8784 22.3632 20.7656C22.0456 22.5406 21.9537 24.8959 22.8062 27.4713L22.8075 27.4751L22.8075 27.4751C22.8888 27.7277 22.8135 27.9649 22.7632 28.0879C22.7063 28.2271 22.6262 28.3524 22.5559 28.4358L22.5555 28.4362C18.8156 32.8654 17.669 39.91 19.7916 45.5404C21.38 49.7452 25.3891 55.1409 35.6165 56.6664C35.8614 56.7029 36.0427 56.9132 36.0427 57.1609V57.1633C36.0427 57.2609 36.0142 57.3563 35.9607 57.4378C35.712 57.8165 35.4555 58.1585 35.2035 58.4946C34.3536 59.628 33.5551 60.6928 33.2831 62.8621C33.2595 63.0499 33.132 63.2083 32.9535 63.2714C31.4255 63.8111 30.0375 64.0121 28.7108 63.6214L28.7105 63.6213C27.3349 63.2153 26.2901 62.2963 25.4151 60.8248C23.6879 57.9229 20.902 55.6665 17.7459 55.695L18.0726 59.3967C18.902 59.475 19.6698 59.889 20.3193 60.4184C21.1014 61.0559 21.7672 61.904 22.2439 62.7082C23.6147 65.0168 25.4397 66.5003 27.6659 67.1574L32.9198 81.3929ZM32.9198 81.3929C33.0403 81.2981 33.1106 81.1533 33.1106 81M32.9198 81.3929L33.1106 81M33.1106 81V67.7664C33.1106 67.615 33.042 67.4717 32.9241 67.3768M33.1106 81L32.9241 67.3768M32.9241 67.3768C32.8061 67.2819 32.6515 67.2455 32.5036 67.2779M32.9241 67.3768L32.5036 67.2779M32.5036 67.2779C30.8425 67.6417 29.336 67.6496 27.666 67.1574L32.5036 67.2779Z" stroke="#4D4D4D" stroke-linejoin="round"/>
</svg>