<svg xmlns="http://www.w3.org/2000/svg" width="83" height="82" viewBox="0 0 83 82" fill="none">
    <path d="M40.947 11.6786C31.921 11.7481 25.7968 17.0808 23.4594 25.2096L23.4592 25.2101C22.7082 27.8124 22.4438 30.4749 22.4966 33.2038C22.6465 40.0712 24.632 45.191 27.9923 48.5363C31.3492 51.8781 36.1438 53.5142 42.0488 53.2861L42.0491 53.2861C47.0237 53.0967 51.4346 50.3661 53.9438 45.4878C54.019 45.3377 54.1104 45.1897 54.1897 45.0612C54.2163 45.0181 54.2416 44.9772 54.2644 44.9392L54.5026 44.5422L54.8858 44.7338C54.8959 44.7364 54.909 44.74 54.9226 44.7443C54.9497 44.7528 54.9849 44.7654 55.0239 44.7849L55.2765 44.9112L55.2987 45.1928C55.3546 45.9007 55.3357 50.7155 55.318 51.4026C55.2817 54.0786 54.9559 56.7642 54.0011 59.3348C52.5543 63.23 49.8377 65.8061 45.693 66.7027C42.4422 67.4149 39.1795 67.3986 35.9493 66.481C33.9714 65.9198 32.2615 65.037 30.9356 63.7442C29.6411 62.482 28.7349 60.8505 28.2919 58.8036H24.098C24.2738 60.4294 24.6898 61.9053 25.4977 63.262C27.5702 66.7299 31.127 68.8347 35.2063 69.8267C39.2864 70.8188 43.8471 70.6852 47.8413 69.711C52.1642 68.6454 55.0545 66.2801 56.8792 63.0762C58.7136 59.8552 59.4878 55.7548 59.4967 51.2141C59.4967 51.2139 59.4967 51.2136 59.4967 51.2133L59.4967 51.2112L59.4966 51.1972L59.4965 51.1394L59.4959 50.8905C59.4954 50.6605 59.4947 50.2954 59.4939 49.755C59.4922 48.6742 59.49 46.8922 59.4878 44.0875C59.4833 38.5353 59.4789 28.9748 59.4788 12.9107H55.3003V19.6071V19.9536L54.9758 20.0753C54.8535 20.1212 54.7132 20.1352 54.5706 20.0953C54.4352 20.0574 54.3389 19.9823 54.2771 19.9205C54.183 19.8265 54.1132 19.7001 54.0874 19.6534C54.0845 19.6482 54.0822 19.644 54.0804 19.6409L54.0699 19.6225L54.061 19.6032C52.4132 16.0503 47.8764 11.6267 40.947 11.6786ZM40.947 11.6786L40.9431 11.1786L40.947 11.6786ZM55.1171 29.3608L55.117 29.3604C54.5366 25.1436 53.1107 21.5299 50.7169 18.9688C48.3121 16.3962 44.9701 14.9289 40.6592 14.9464C37.4543 14.9102 34.1545 16.1508 31.561 18.8045C28.9657 21.4602 27.1029 25.5035 26.7122 31.0362L26.7122 31.0365C26.2235 38.0229 28.4591 45.6653 35.3568 48.8817C38.7014 50.4425 44.3419 50.7089 48.4963 47.8213L48.4965 47.8212C54.2826 43.7968 56.0414 36.1213 55.1171 29.3608ZM81.5681 71V11C81.5681 5.206 76.8621 0.5 71.0681 0.5H11.0681C5.27412 0.5 0.568115 5.206 0.568115 11V71C0.568115 76.794 5.27412 81.5 11.0681 81.5H71.0681C76.8621 81.5 81.5681 76.794 81.5681 71Z" stroke="#4D4D4D"/>
</svg>