<svg xmlns="http://www.w3.org/2000/svg" width="74" height="82" viewBox="0 0 74 82" fill="none">
    <path d="M72.5592 55.0422L72.5867 54.9872L72.5535 54.8194C72.3088 53.5836 70.9838 52.6741 69.7231 53.0161C68.7764 52.2181 67.5561 52.0431 66.3916 52.0644C65.7538 52.076 65.1061 52.1473 64.4961 52.2225C64.3762 52.2373 64.258 52.2522 64.1418 52.2669C64.0584 52.2774 63.9759 52.2878 63.8944 52.298C64.0245 52.1128 64.1496 51.933 64.2448 51.7957L64.3708 51.6136L64.406 51.5626L64.4153 51.5491L64.4177 51.5456L64.4183 51.5447L64.4185 51.5445L64.4185 51.5444L64.0067 51.2609L64.4186 51.5444L64.4955 51.4325L64.5054 51.2971C64.6276 49.6096 64.3386 47.9935 63.9495 46.4297C64.8433 46.5397 66.0123 46.6379 67.0602 46.713C67.7552 46.7628 68.4044 46.8029 68.8975 46.83C69.3717 46.856 69.7387 46.8723 69.8367 46.8685L69.8447 46.868C70.787 46.8154 71.3174 46.1295 71.5516 45.3474C71.7827 44.5756 71.771 43.6088 71.604 42.6838C71.4362 41.7536 71.1011 40.8084 70.6326 40.0727C70.1765 39.3564 69.5191 38.7284 68.6752 38.6773L68.6236 38.6742L68.5725 38.6817L68.645 39.1764L68.5724 38.6817L68.5721 38.6818L68.5708 38.6819L68.5659 38.6827L68.5464 38.6855L68.4701 38.6967L68.1796 38.739C67.9289 38.7754 67.57 38.8273 67.1373 38.8893C66.2719 39.0133 65.1116 39.1777 63.9315 39.3391C62.7508 39.5007 61.5526 39.659 60.6106 39.7711C60.4828 39.7863 60.3599 39.8006 60.2426 39.814C61.197 39.0096 62.2786 38.3214 63.3911 37.6136C63.6182 37.4691 63.8466 37.3237 64.0755 37.1764C65.7938 36.0705 67.525 34.8591 68.6882 33.0682C69.1332 32.6674 69.4445 32.2548 69.6098 31.8244C69.786 31.3659 69.7855 30.9144 69.6418 30.4906C69.3684 29.6842 68.5992 29.0414 67.7775 28.5313C66.933 28.0071 65.9184 27.5553 65.0025 27.1741C64.7133 27.0538 64.4369 26.9416 64.1781 26.8365C64.0551 26.7865 63.9361 26.7382 63.8216 26.6914C64.9525 26.2685 66.0171 25.9625 67.2488 25.6534H67.3213L67.3911 25.6185L67.6916 25.5399L68.3102 25.3781L68.045 24.892C68.6619 24.1336 68.8077 23.2456 68.6264 22.3832C68.4271 21.4348 67.839 20.529 67.0952 19.8073C66.3492 19.0834 65.4083 18.5069 64.4474 18.2455C63.5153 17.992 62.5155 18.0254 61.6833 18.5798C60.0759 19.0091 58.5495 19.6483 57.0843 20.3866C58.7047 18.2549 60.2749 15.9023 61.1464 13.4409L61.302 13.0014L61.0149 12.8766C60.8783 11.7299 60.547 9.51167 59.9006 7.78913C59.555 6.86838 59.0794 5.97485 58.4007 5.52212C58.0406 5.28188 57.6193 5.16347 57.1551 5.23814C57.0452 5.25581 56.9361 5.28379 56.8276 5.32158C56.8628 3.79666 56.1298 2.29092 55.0962 1.38746C54.4416 0.815339 53.6219 0.44527 52.7493 0.50658C51.8632 0.568833 51.0225 1.06854 50.3279 2.03754L50.3028 2.07248L50.2841 2.11119C49.9494 2.80333 49.5892 3.48975 49.2232 4.18716C49.2157 4.20143 49.2082 4.21571 49.2007 4.23C49.2522 3.85237 49.2804 3.47818 49.2648 3.13197C49.2405 2.59401 49.1055 2.01308 48.6633 1.63167L48.6259 1.59941L48.5829 1.5751C47.4193 0.9168 45.8089 1.21689 44.5666 1.87962C43.3259 2.54155 42.1798 3.71251 42.1563 5.10126L42.1554 5.15792L42.1671 5.21336C42.3967 6.29669 42.5087 8.10984 42.5377 9.69308C42.5521 10.4789 42.5458 11.1942 42.5249 11.7164C42.5144 11.979 42.5006 12.1847 42.485 12.3233C42.4848 12.3249 42.4847 12.3264 42.4845 12.3279C42.4578 12.3451 42.4312 12.3625 42.4046 12.3798C42.4044 12.3783 42.4043 12.3768 42.4041 12.3754C42.3548 11.9492 42.28 11.4119 42.1853 10.8578C42.0908 10.3048 41.9752 9.72776 41.8437 9.22465C41.7168 8.73896 41.561 8.26473 41.3672 7.95816C40.3373 6.32886 38.5476 5.74105 36.8068 6.10952C35.0723 6.47665 33.3914 7.78256 32.4473 9.91262L32.4246 9.96387L32.4138 10.0189C31.9545 12.3577 32.2819 14.9698 32.69 17.5511C32.7502 17.9319 32.8121 18.3121 32.8739 18.6912C33.045 19.7408 33.2147 20.7822 33.3422 21.8061C33.2223 21.4159 33.105 21.0204 32.9866 20.6214C32.7813 19.9292 32.5728 19.2264 32.3422 18.5216C31.6169 16.305 30.6819 14.1193 28.9223 12.5548L28.7705 12.4199L28.5677 12.429L28.59 12.9285C28.5677 12.429 28.5676 12.429 28.5674 12.429L28.5668 12.429L28.565 12.4291L28.5586 12.4294L28.5349 12.4306C28.5145 12.4317 28.4847 12.4333 28.4464 12.4356C28.3697 12.4402 28.2586 12.4475 28.1186 12.4585C27.8387 12.4804 27.4426 12.5169 26.9744 12.5753C26.0414 12.6918 24.8083 12.8972 23.6366 13.254C22.4811 13.606 21.3104 14.1268 20.5726 14.9178C20.1953 15.3224 19.9216 15.8082 19.8351 16.3808C19.7487 16.9528 19.8562 17.5655 20.1628 18.2128L20.1759 18.2404L20.1922 18.2661C20.6834 19.0425 21.9749 20.6254 23.1803 22.0831C23.2234 22.1351 23.2663 22.187 23.3092 22.2388C22.8908 21.9986 22.4569 21.7957 22.0784 21.7289L22.0767 21.7287C21.1026 21.5604 20.0625 21.6681 19.2494 22.1399C18.4565 22.5998 17.9164 23.3882 17.8757 24.4794C17.8631 24.4666 17.8505 24.4537 17.8379 24.4409C16.9172 23.5053 15.9326 22.6543 14.9537 22.2602C14.4548 22.0594 13.9305 21.966 13.405 22.0632C12.8912 22.1582 12.4233 22.4268 12.0093 22.8654C9.23587 24.7502 6.94176 27.2156 5.17888 30.0515L4.93389 30.4457L5.30868 30.7193C7.68841 32.4569 10.848 33.7164 13.6805 34.3223C13.7973 34.546 13.9487 34.749 14.1125 34.9334C13.8466 34.9105 13.5801 34.9032 13.317 34.9106C12.3601 34.9375 11.4074 35.1603 10.6622 35.5781C9.91795 35.9954 9.31902 36.6485 9.24456 37.5392C9.23287 37.679 9.23451 37.8204 9.24941 37.9633C9.00367 37.756 8.74672 37.5367 8.48537 37.3106C7.18349 36.1845 5.83999 34.9459 5.25617 34.2066L4.92183 33.7832L4.52501 34.1487C4.03034 34.6044 3.50952 35.3986 3.05674 36.3034C2.59807 37.2201 2.18537 38.2984 1.92656 39.3589C1.67001 40.4102 1.5533 41.4895 1.72907 42.388C1.8938 43.23 2.33251 43.9629 3.17617 44.2952C3.37092 44.7108 3.69443 45.0101 4.02776 45.2351C2.92388 45.5345 2.17344 46.0559 1.78205 46.7762C1.22845 47.7949 1.51049 48.9925 2.11564 50.0214C2.72982 51.0656 3.73784 52.0548 4.8801 52.7601C5.77119 53.3103 6.77802 53.7082 7.77693 53.8042C6.8665 54.0645 5.98115 54.4103 5.14305 54.7376C4.86502 54.8462 4.5922 54.9528 4.32538 55.0535L4.00591 55.1742L4.00202 55.5156C3.97365 58.004 4.89282 60.6285 6.41303 62.7659C7.7723 64.677 9.6392 66.2355 11.7955 66.9482C11.6955 67.115 11.6202 67.2898 11.5708 67.4723C11.4525 67.909 11.4942 68.3453 11.6334 68.757C11.9041 69.5577 12.5632 70.3241 13.3013 70.9998C14.4466 72.0483 15.9534 73.0239 16.9861 73.6926C17.2709 73.877 17.5196 74.038 17.7147 74.1708L17.7042 74.1998C18.8011 74.865 19.9045 75.7319 21.0555 76.6502C21.1326 76.7117 21.2098 76.7733 21.2872 76.8352C22.3578 77.6901 23.4681 78.5768 24.6175 79.3366C27.0847 80.9676 29.8376 82.0854 32.9776 81.0677L33.5726 80.8749L33.2558 80.3409C34.1758 80.4416 35.0887 80.6558 36.0356 80.878C36.2111 80.9192 36.3877 80.9606 36.5658 81.0017C38 81.3324 39.5116 81.6318 41.1018 81.4395L41.7285 81.3637L41.5127 80.7751C41.9037 80.771 42.3197 80.7757 42.7567 80.7806C43.0063 80.7835 43.2627 80.7864 43.5251 80.7878C44.5106 80.7929 45.5616 80.7757 46.5588 80.6386C48.2953 80.3999 49.9902 79.7766 50.8627 78.1571C51.3834 78.2746 52.0126 78.2628 52.642 78.1631C53.3197 78.0558 54.0375 77.8404 54.6853 77.5316C55.329 77.2247 55.9328 76.8115 56.3517 76.2917C56.6565 75.9135 56.8681 75.4706 56.9139 74.9786C57.467 74.9573 57.9271 74.798 58.2691 74.4904C58.7259 74.0796 58.8698 73.4969 58.8425 72.9412C58.8339 72.768 58.8088 72.5907 58.7686 72.4124C59.0286 72.5226 59.2885 72.6053 59.548 72.6613C60.5769 72.8837 61.5432 72.6749 62.411 72.1908C64.1126 71.2416 65.4726 69.2172 66.4164 67.1434L66.5454 66.86L66.348 66.6192L66.3478 66.619L66.3474 66.6185L66.3458 66.6165L66.3392 66.6086L66.3144 66.5782L66.2255 66.4695C66.1519 66.3793 66.0538 66.2589 65.9559 66.1379C65.8577 66.0165 65.7609 65.8959 65.6891 65.8047C65.6835 65.7976 65.6782 65.7908 65.673 65.7842V65.5472L65.2817 65.4601C64.6693 65.3237 64.0418 65.1698 63.4062 65.014C62.2878 64.7399 61.1443 64.4596 60.014 64.2572C58.8013 64.0401 57.5654 63.9038 56.3128 63.9471C56.3238 63.9393 56.3358 63.9308 56.3487 63.9217C56.4215 63.8703 56.5218 63.8002 56.632 63.7255C56.8123 63.6031 56.9971 63.4833 57.1312 63.4067L57.4561 63.4172C57.7487 63.4268 58.1686 63.441 58.6777 63.4589C59.696 63.4948 61.0707 63.5461 62.4969 63.6074C63.9235 63.6688 65.3995 63.7402 66.6212 63.8163C67.8591 63.8935 68.7949 63.9734 69.1701 64.0468L69.5829 64.1275L69.733 63.7345C69.9903 63.0611 70.3027 62.3829 70.6302 61.6844C70.6655 61.609 70.701 61.5334 70.7366 61.4575C71.0288 60.8353 71.3288 60.1966 71.5968 59.5499C72.1813 58.1398 72.638 56.6385 72.5592 55.0422ZM42.6581 12.2169L42.6538 12.2195C42.6553 12.2187 42.6567 12.2178 42.6581 12.2169ZM10.2782 53.4138C10.2035 53.4052 10.1283 53.3998 10.0527 53.3976C10.1438 53.3496 10.2335 53.2973 10.3215 53.2407C10.3051 53.2973 10.2905 53.3551 10.2782 53.4138Z" stroke="#4D4D4D"/>
</svg>